<?xml version="1.0" encoding="UTF-8"?><svg id="uuid-d08b1fe0-e3d8-4d8a-ad98-556e271d3122" xmlns="http://www.w3.org/2000/svg" viewBox="0 0 303.48 320.51"><defs><style>.uuid-a6652663-4cfc-4d2b-9922-46a1ab956df9{fill:#222;}</style></defs><g id="uuid-9de15b82-1edf-4137-945e-12617cb5364e"><path class="uuid-a6652663-4cfc-4d2b-9922-46a1ab956df9" d="m20.51,73.74V16.41h3.2c39.86,0,79.71-.01,119.57.03,2,0,3.26-.21,3.4-2.65.09-1.52.78-3.05,1.4-4.49,3.72-8.66,12.19-11.81,21.12-7.19,7.42,3.84,14.37,8.6,21.59,12.82,1.34.79,3.03,1.4,4.56,1.4,35.04.08,70.08.06,105.12.06h2.95v2.94c0,80.71-.05,161.41.06,242.12.01,8.8-3.17,15.97-9.04,22.17-8.7,9.19-19.63,14.93-31.13,19.66-18.7,7.69-38.29,11.9-58.27,14.48-22.14,2.86-44.36,3.43-66.61,1.89-27.95-1.94-55.36-6.6-81.27-17.84-10.41-4.52-20.21-10.09-28.04-18.55-5.83-6.29-8.71-13.55-8.67-22.32.18-42.59.07-85.19.12-127.79,0-2.11-.57-3.74-1.84-5.42-6.51-8.64-12.52-17.63-16.3-27.83-1.41-3.81-2.21-8.02-2.4-12.08-.27-5.75,2.81-9.93,8.28-11.67,3.81-1.22,7.9-1.6,12.21-2.43Zm145.93,49.1c0-5.32-.09-10.45.03-15.58.09-3.75,3.15-7.8,6.61-8.9,3.77-1.19,6.74.4,8.95,3.28,1.81,2.35,3.46,4.89,4.74,7.55,6.35,13.31,9.97,27.42,11.48,42.05,2.71,26.16-.96,51.59-8.41,76.69-1.96,6.62-5.8,10.61-11.62,13.51-16.29,8.12-32.05,6.13-47.73-1.89-5.22-2.67-8.47-6.58-9.87-12.06-1.45-5.69-2.56-11.48-3.91-17.2-.18-.76-.69-1.79-1.31-2.05-13.78-5.83-26.26-13.81-38.19-22.75-.69-.51-2.05-.64-2.89-.35-4.07,1.43-8.13,2.9-12.07,4.65-10.23,4.54-19.9,9.98-27.61,18.31-5.03,5.44-8.58,11.63-8.67,19.29-.11,9.16,4.5,16.12,10.76,22.18,7.19,6.96,15.77,11.84,24.85,15.86,24.3,10.74,50.04,15.36,76.31,17.32,25.5,1.9,50.93.96,76.18-3.38,18.55-3.19,36.65-7.95,53.55-16.46,9.41-4.74,18.18-10.4,24.56-19.05,5.27-7.14,7.41-14.99,4.5-23.69-2.58-7.7-7.87-13.41-14.17-18.19-4.08-3.09-8.46-5.77-12.39-8.42.33-6.15.99-12.18.9-18.21-.1-6.29-.74-12.59-1.47-18.85-2.04-17.47-6.38-34.38-12.82-50.75-10.27-26.07-25.9-48.43-46.02-67.87-12.43-12.01-25.55-22.96-40.99-30.9-1.83-.94-3.76-1.79-5.74-2.31-4.95-1.3-9.47.47-11.37,5.17-1.46,3.6-2.46,7.65-2.48,11.51-.19,32.88-.11,65.76-.11,98.64,0,.89,0,1.78,0,2.82h16.42Zm19.52-4.92c-3.24,2.72-6.1,5.77-9.55,7.88-7,4.29-14.92,5.43-23.01,4.98-8.46-.48-16.4-2.66-22.86-8.53-7.12-6.47-7.08-15.39-.07-22,3.85-3.63,8.53-5.64,13.49-7.17.69-.21,1.79-.82,1.81-1.27.14-4.35.08-8.71.08-13.08-.81-.08-1.22-.15-1.63-.15-42.25,0-84.5-.01-126.75.09-2.67,0-5.43.69-8,1.53-3.5,1.15-5.41,3.92-5.36,7.58.03,2.53.38,5.16,1.16,7.56,3.54,10.87,9.5,20.48,16.47,29.38,14.06,17.96,30.06,34.1,47.46,48.84,13.27,11.24,27.3,21.41,43.17,28.75,12.27,5.67,24.94,9.51,38.74,7.97.87-.1,2.46.87,2.72,1.67.53,1.64-.87,2.43-2.33,2.4-5.62-.09-11.28.04-16.85-.59-4.48-.5-8.84-1.97-13.26-3.01-.29,4.99,3.26,17.71,6.04,21.51.34.46.75.9,1.22,1.22,15.68,10.47,35.1,13.11,52.07,1.56,1.88-1.28,3.07-2.77,3.79-4.95,9.01-27.42,12.78-55.38,8.81-84.14-1.36-9.8-3.85-19.33-7.36-28.03Z"/><path class="uuid-a6652663-4cfc-4d2b-9922-46a1ab956df9" d="m242.19,175.24c-.09,22.41-2.93,44.38-8.99,65.93-.11.4-.28.78-.36,1.19-.35,1.6-1.17,2.69-2.94,2.17-1.77-.52-1.42-1.98-1.12-3.3,1.88-8.24,4.18-16.41,5.59-24.73,4.79-28.18,4.64-56.32-1.55-84.33-.2-.93-.29-2.04.04-2.87.21-.53,1.49-1.13,1.96-.93.77.33,1.65,1.21,1.81,2,1.24,6.18,2.63,12.35,3.36,18.59,1.01,8.73,1.48,17.51,2.19,26.28Z"/><path class="uuid-a6652663-4cfc-4d2b-9922-46a1ab956df9" d="m220.75,173.65c-.18,19.4-3.34,38.29-9.45,56.69-.08.24-.16.47-.24.71-.52,1.47-1.15,3.05-3.1,2.31-1.72-.66-1.3-2.16-.94-3.62,2.51-10.12,5.64-20.14,7.31-30.4,3.84-23.62,2.84-47.1-4.29-70.12-.45-1.46-.76-2.93,1.01-3.55,1.79-.63,2.48.7,2.96,2.16,3.6,11.02,5.39,22.38,6.2,33.91.28,3.97.36,7.95.54,11.93Z"/><path class="uuid-a6652663-4cfc-4d2b-9922-46a1ab956df9" d="m260.34,175.13c-1.26,12.86-2.53,25.81-3.81,38.75-.02.25-.09.49-.13.73-.25,1.41-.74,2.72-2.5,2.42-1.69-.29-1.86-1.62-1.68-3.08.74-5.93,1.67-11.84,2.16-17.78,1.82-22.11,1.59-44.1-4.66-65.65-.23-.8-.49-1.59-.76-2.37-.51-1.47-1.05-3.08.97-3.72,1.97-.62,2.66.94,3.05,2.44,1.41,5.37,3.24,10.68,3.99,16.15,1.45,10.58,2.27,21.25,3.37,32.1Z"/><path class="uuid-a6652663-4cfc-4d2b-9922-46a1ab956df9" d="m154.43,193.37c-18.48-.26-34.21-5.38-49.02-13.54-5.51-3.04-10.67-6.7-15.95-10.13-.67-.43-1.42-1.07-1.64-1.77-.2-.64.2-2.12.45-2.14,1.1-.11,2.45-.18,3.34.35,6.27,3.72,12.26,7.95,18.7,11.35,12.3,6.49,25.37,10.62,39.37,11.47,7.53.46,14.91-.38,22.17-2.37.48-.13,1.03-.48,1.42-.35.92.3,1.76.83,2.63,1.26-.51.9-.84,2.4-1.55,2.61-3.66,1.05-7.38,1.96-11.13,2.55-3.35.53-6.77.57-8.79.73Z"/><path class="uuid-a6652663-4cfc-4d2b-9922-46a1ab956df9" d="m158.84,172.76c-19.63-.45-37.06-5.78-53.37-14.97-.85-.48-1.74-1.67-1.82-2.6-.14-1.68,1.76-2.18,3.78-1.06,8.6,4.76,17.65,8.42,27.16,10.91,15.89,4.16,31.74,4.95,47.5-.65,1.56-.55,3.1-1.19,4.6-1.88,1.44-.66,2.84-.91,3.55.81.64,1.56-.42,2.39-1.78,3.02-7.15,3.29-14.67,5.2-22.49,5.94-2.64.25-5.29.36-7.14.48Z"/><path class="uuid-a6652663-4cfc-4d2b-9922-46a1ab956df9" d="m153.65,151.28c-18.31-.48-36.08-7.12-52.5-17.87-1.29-.85-2.34-1.88-1.29-3.44,1.07-1.59,2.38-.9,3.66-.05,11.44,7.61,23.82,13.05,37.34,15.67,13.5,2.62,26.73,1.89,39.46-3.74,1.45-.64,3.01-1.22,3.83.66.83,1.91-.73,2.59-2.15,3.22-8.54,3.8-17.52,5.44-28.34,5.54Z"/></g></svg>