<svg width="114" height="59" viewBox="0 0 114 59" fill="none" xmlns="http://www.w3.org/2000/svg">
<path d="M61.4282 18V4.99999H63.3897V11.208H63.5483L69.001 4.99999H71.4702L66.2271 10.8525L71.4893 18H69.1279L64.9258 12.1919L63.3897 13.9565V18H61.4282ZM83.4498 9.22753H81.4694C81.3932 8.80436 81.2514 8.43196 81.0441 8.11034C80.8367 7.78873 80.5828 7.51578 80.2824 7.2915C79.9819 7.06721 79.6455 6.89794 79.2731 6.78368C78.9049 6.66943 78.5135 6.6123 78.0988 6.6123C77.3497 6.6123 76.679 6.80061 76.0866 7.17724C75.4983 7.55387 75.0328 8.10611 74.6901 8.83398C74.3515 9.56184 74.1823 10.4505 74.1823 11.5C74.1823 12.5579 74.3515 13.4508 74.6901 14.1787C75.0328 14.9066 75.5005 15.4567 76.0929 15.8291C76.6854 16.2015 77.3519 16.3877 78.0924 16.3877C78.5029 16.3877 78.8922 16.3327 79.2604 16.2227C79.6328 16.1084 79.9692 15.9412 80.2697 15.7212C80.5701 15.5011 80.824 15.2324 81.0314 14.915C81.243 14.5934 81.389 14.2253 81.4694 13.8105L83.4498 13.8169C83.3441 14.4559 83.1388 15.0441 82.8341 15.5815C82.5337 16.1147 82.1465 16.576 81.6725 16.9653C81.2028 17.3504 80.6653 17.6488 80.0602 17.8604C79.4551 18.0719 78.7949 18.1777 78.0797 18.1777C76.9541 18.1777 75.9511 17.9111 75.0709 17.3779C74.1907 16.8405 73.4967 16.0724 72.9889 15.0737C72.4853 14.075 72.2335 12.8838 72.2335 11.5C72.2335 10.112 72.4874 8.92073 72.9952 7.92626C73.5031 6.92756 74.1971 6.16161 75.0773 5.62841C75.9575 5.09097 76.9583 4.82226 78.0797 4.82226C78.7695 4.82226 79.4127 4.9217 80.0094 5.1206C80.6103 5.31526 81.1499 5.60302 81.6281 5.98388C82.1063 6.36051 82.5019 6.82177 82.8151 7.36767C83.1282 7.90934 83.3398 8.52929 83.4498 9.22753Z" fill="#FAF0E6"/>
<path d="M72.2256 24.665H70.2451C70.169 24.2419 70.0272 23.8695 69.8198 23.5478C69.6125 23.2262 69.3586 22.9533 69.0581 22.729C68.7577 22.5047 68.4212 22.3354 68.0488 22.2212C67.6807 22.1069 67.2892 22.0498 66.8745 22.0498C66.1255 22.0498 65.4548 22.2381 64.8623 22.6147C64.2741 22.9914 63.8086 23.5436 63.4658 24.2715C63.1273 24.9993 62.958 25.888 62.958 26.9375C62.958 27.9954 63.1273 28.8883 63.4658 29.6162C63.8086 30.3441 64.2762 30.8942 64.8687 31.2666C65.4611 31.639 66.1276 31.8252 66.8682 31.8252C67.2787 31.8252 67.668 31.7702 68.0361 31.6602C68.4085 31.5459 68.745 31.3787 69.0454 31.1587C69.3459 30.9386 69.5998 30.6699 69.8071 30.3525C70.0187 30.0309 70.1647 29.6628 70.2451 29.248L72.2256 29.2544C72.1198 29.8934 71.9146 30.4816 71.6099 31.019C71.3094 31.5522 70.9222 32.0135 70.4482 32.4028C69.9785 32.7879 69.4411 33.0863 68.8359 33.2979C68.2308 33.5094 67.5706 33.6152 66.8555 33.6152C65.7298 33.6152 64.7269 33.3486 63.8467 32.8154C62.9665 32.278 62.2725 31.5099 61.7646 30.5112C61.2611 29.5125 61.0093 28.3213 61.0093 26.9375C61.0093 25.5495 61.2632 24.3582 61.771 23.3638C62.2788 22.3651 62.9728 21.5991 63.853 21.0659C64.7332 20.5285 65.7341 20.2598 66.8555 20.2598C67.5453 20.2598 68.1885 20.3592 68.7852 20.5581C69.3861 20.7528 69.9256 21.0405 70.4038 21.4214C70.882 21.798 71.2777 22.2593 71.5908 22.8052C71.904 23.3468 72.1156 23.9668 72.2256 24.665ZM74.5726 33.4375V20.4375H76.5341V31.749H82.4247V33.4375H74.5726ZM86.4237 33.4375H84.3417L89.0199 20.4375H91.286L95.9643 33.4375H93.8822L90.2069 22.7988H90.1054L86.4237 33.4375ZM86.7728 28.3467H93.5268V29.9971H86.7728V28.3467ZM95.512 20.4375H97.74L101.136 26.3472H101.276L104.672 20.4375H106.9L102.183 28.334V33.4375H100.228V28.334L95.512 20.4375Z" fill="#FAF0E6"/>
<path d="M70.2261 41.6069C70.1034 41.2218 69.9383 40.8769 69.731 40.5723C69.5278 40.2633 69.2845 40.001 69.001 39.7851C68.7175 39.5651 68.3937 39.3979 68.0298 39.2837C67.6701 39.1694 67.2744 39.1123 66.8428 39.1123C66.1107 39.1123 65.4505 39.3006 64.8623 39.6772C64.2741 40.0539 63.8086 40.6061 63.4658 41.334C63.1273 42.0576 62.958 42.9442 62.958 43.9936C62.958 45.0474 63.1294 45.9381 63.4722 46.666C63.8149 47.3939 64.2847 47.9461 64.8814 48.3228C65.478 48.6994 66.1572 48.8877 66.9189 48.8877C67.6257 48.8877 68.2414 48.7438 68.7661 48.4561C69.2951 48.1683 69.7035 47.762 69.9912 47.2373C70.2832 46.7083 70.4292 46.0863 70.4292 45.3711L70.937 45.4663H67.2173V43.8477H72.3272V45.3267C72.3272 46.4185 72.0944 47.3664 71.6289 48.1704C71.1677 48.9702 70.5287 49.5881 69.7119 50.0239C68.8994 50.4598 67.9684 50.6777 66.9189 50.6777C65.7425 50.6777 64.71 50.4069 63.8213 49.8652C62.9369 49.3236 62.2471 48.5555 61.752 47.561C61.2568 46.5623 61.0093 45.3774 61.0093 44.0063C61.0093 42.9696 61.1532 42.0386 61.4409 41.2134C61.7287 40.3882 62.1328 39.6878 62.6533 39.1123C63.1781 38.5325 63.7938 38.0903 64.5005 37.7856C65.2114 37.4767 65.988 37.3223 66.8301 37.3223C67.5326 37.3223 68.1864 37.4259 68.7915 37.6333C69.4009 37.8406 69.9426 38.1348 70.4165 38.5156C70.8947 38.8965 71.2904 39.3493 71.6035 39.874C71.9167 40.3945 72.1283 40.9722 72.2383 41.6069H70.2261ZM83.1769 37.5H85.1447V46.0503C85.1447 46.9601 84.931 47.7663 84.5036 48.4687C84.0761 49.167 83.4752 49.7171 82.7008 50.1191C81.9264 50.5169 81.0187 50.7158 79.9777 50.7158C78.9409 50.7158 78.0353 50.5169 77.2609 50.1191C76.4865 49.7171 75.8855 49.167 75.4581 48.4687C75.0307 47.7663 74.817 46.9601 74.817 46.0503V37.5H76.7785V45.8916C76.7785 46.4798 76.9075 47.0024 77.1657 47.4595C77.428 47.9165 77.7983 48.2762 78.2765 48.5386C78.7547 48.7967 79.3217 48.9258 79.9777 48.9258C80.6378 48.9258 81.207 48.7967 81.6852 48.5386C82.1676 48.2762 82.5358 47.9165 82.7897 47.4595C83.0478 47.0024 83.1769 46.4798 83.1769 45.8916V37.5ZM89.9578 37.5V50.5H87.9964V37.5H89.9578ZM92.8142 50.5V37.5H94.7757V48.8115H100.666V50.5H92.8142ZM107.112 50.5H102.904V37.5H107.246C108.519 37.5 109.613 37.7602 110.527 38.2808C111.441 38.797 112.142 39.5397 112.628 40.5088C113.119 41.4736 113.365 42.631 113.365 43.981C113.365 45.3351 113.117 46.4989 112.622 47.4722C112.131 48.4455 111.42 49.1945 110.489 49.7192C109.558 50.2397 108.433 50.5 107.112 50.5ZM104.865 48.7861H107.004C107.995 48.7861 108.818 48.5999 109.474 48.2275C110.13 47.8509 110.62 47.3071 110.946 46.5962C111.272 45.881 111.435 45.0093 111.435 43.981C111.435 42.9611 111.272 42.0957 110.946 41.3848C110.625 40.6738 110.144 40.1343 109.505 39.7661C108.866 39.3979 108.073 39.2139 107.125 39.2139H104.865V48.7861Z" fill="#FAF0E6"/>
<g clip-path="url(#clip0_0_1)">
<path d="M3.65089 13.5728V3.0194H4.22028C11.3128 3.0194 18.4036 3.01756 25.4961 3.02492C25.852 3.02492 26.0762 2.98626 26.1011 2.5371C26.1171 2.2573 26.2399 1.97565 26.3502 1.71058C27.0121 0.11643 28.5192 -0.463427 30.1082 0.38703C31.4285 1.0939 32.6651 1.97013 33.9498 2.74696C34.1883 2.89238 34.489 3.00467 34.7612 3.00467C40.9961 3.0194 47.231 3.01572 53.4658 3.01572H53.9907V3.55692C53.9907 18.4141 53.9819 33.2695 54.0014 48.1268C54.0032 49.7467 53.4374 51.0665 52.3929 52.2078C50.8448 53.8996 48.9 54.9562 46.8537 55.8269C43.5263 57.2425 40.0406 58.0175 36.4854 58.4924C32.5459 59.0189 28.5922 59.1238 24.6331 58.8403C19.6598 58.4832 14.7826 57.6254 10.1722 55.5563C8.31993 54.7242 6.57616 53.6989 5.18292 52.1416C4.14555 50.9837 3.6331 49.6473 3.64021 48.0329C3.67224 40.1928 3.65267 32.351 3.66156 24.5091C3.66156 24.1207 3.56014 23.8206 3.33416 23.5114C2.1758 21.9209 1.1064 20.266 0.433807 18.3884C0.182917 17.687 0.0405684 16.912 0.00676057 16.1647C-0.0412821 15.1062 0.506761 14.3367 1.48007 14.0164C2.15801 13.7919 2.88576 13.7219 3.65267 13.5691L3.65089 13.5728ZM29.6171 22.6112C29.6171 21.6319 29.6011 20.6876 29.6224 19.7432C29.6384 19.0529 30.1829 18.3074 30.7986 18.1049C31.4694 17.8858 31.9979 18.1785 32.3911 18.7087C32.7132 19.1413 33.0068 19.6088 33.2345 20.0985C34.3644 22.5486 35.0085 25.146 35.2772 27.8391C35.7594 32.6547 35.1064 37.3359 33.7808 41.9563C33.432 43.175 32.7488 43.9094 31.7132 44.4433C28.8146 45.938 26.0103 45.5717 23.2203 44.0954C22.2915 43.6039 21.7132 42.8841 21.4641 41.8753C21.206 40.8279 21.0085 39.7621 20.7683 38.7091C20.7363 38.5692 20.6455 38.3796 20.5352 38.3318C18.0833 37.2586 15.8626 35.7896 13.7399 34.1439C13.6171 34.05 13.3751 34.0261 13.2256 34.0795C12.5014 34.3427 11.779 34.6133 11.0779 34.9355C9.25765 35.7712 7.53701 36.7726 6.16512 38.306C5.27011 39.3074 4.63843 40.4469 4.62242 41.8569C4.60285 43.5431 5.42313 44.8243 6.53701 45.9399C7.81637 47.2211 9.34306 48.1194 10.9587 48.8594C15.2826 50.8364 19.8626 51.6869 24.537 52.0477C29.0744 52.3974 33.5993 52.2244 38.0922 51.4255C41.3929 50.8383 44.6135 49.9621 47.6206 48.3955C49.295 47.523 50.8555 46.4811 51.9907 44.8888C52.9285 43.5744 53.3092 42.1294 52.7915 40.5279C52.3324 39.1104 51.3911 38.0593 50.2701 37.1794C49.5441 36.6106 48.7648 36.1173 48.0655 35.6295C48.1242 34.4974 48.2416 33.3873 48.2256 32.2773C48.2078 31.1195 48.0939 29.9597 47.9641 28.8074C47.6011 25.5915 46.8288 22.4787 45.6829 19.4652C43.8555 14.6662 41.0744 10.5502 37.4943 6.97163C35.2826 4.76081 32.948 2.74512 30.2007 1.28351C29.8751 1.11047 29.5317 0.954002 29.1794 0.858279C28.2986 0.618973 27.4943 0.944797 27.1562 1.80998C26.8964 2.47267 26.7185 3.21821 26.7149 3.92876C26.6811 9.98136 26.6954 16.034 26.6954 22.0866C26.6954 22.2504 26.6954 22.4142 26.6954 22.6057H29.6171V22.6112ZM33.0904 21.7055C32.5139 22.2062 32.005 22.7677 31.3911 23.1561C30.1456 23.9458 28.7363 24.1556 27.2968 24.0728C25.7915 23.9845 24.3786 23.5832 23.2292 22.5026C21.9623 21.3116 21.9694 19.6696 23.2167 18.4528C23.9018 17.7846 24.7345 17.4146 25.6171 17.1329C25.7399 17.0943 25.9356 16.982 25.9391 16.8992C25.9641 16.0984 25.9534 15.2958 25.9534 14.4914C25.8093 14.4766 25.7363 14.4638 25.6633 14.4638C18.1456 14.4638 10.6278 14.4619 3.10996 14.4803C2.63487 14.4803 2.14377 14.6073 1.68648 14.762C1.0637 14.9737 0.723842 15.4836 0.732739 16.1573C0.738077 16.623 0.800355 17.1072 0.939145 17.549C1.56904 19.5499 2.62954 21.319 3.86975 22.9573C6.37153 26.2634 9.2185 29.2345 12.3146 31.9478C14.6758 34.0169 17.1722 35.889 19.9961 37.2402C22.1794 38.2839 24.4338 38.9908 26.8893 38.7073C27.0441 38.6889 27.327 38.8675 27.3733 39.0147C27.4676 39.3166 27.2185 39.462 26.9587 39.4565C25.9587 39.4399 24.9516 39.4639 23.9605 39.3479C23.1633 39.2559 22.3875 38.9853 21.6011 38.7938C21.5495 39.7124 22.1811 42.0539 22.6758 42.7534C22.7363 42.8381 22.8093 42.9191 22.8929 42.978C25.6829 44.9053 29.1384 45.3913 32.158 43.2652C32.4925 43.0295 32.7043 42.7553 32.8324 42.354C34.4356 37.3064 35.1064 32.1595 34.4 26.8653C34.158 25.0613 33.7149 23.307 33.0904 21.7055Z" fill="#FAF0E6"/>
<path d="M43.0943 32.2585C43.0783 36.3837 42.5729 40.428 41.4947 44.395C41.4751 44.4686 41.4448 44.5386 41.4306 44.614C41.3683 44.9086 41.2224 45.1092 40.9075 45.0135C40.5925 44.9178 40.6548 44.649 40.7082 44.406C41.0427 42.8892 41.4519 41.3852 41.7028 39.8537C42.5552 34.6663 42.5285 29.4862 41.427 24.3301C41.3915 24.1589 41.3754 23.9545 41.4342 23.8018C41.4715 23.7042 41.6993 23.5937 41.7829 23.6306C41.9199 23.6913 42.0765 23.8533 42.105 23.9987C42.3256 25.1363 42.5729 26.2721 42.7028 27.4208C42.8826 29.0278 42.9662 30.6441 43.0925 32.2585H43.0943Z" fill="#FAF0E6"/>
<path d="M39.2794 31.9658C39.2473 35.5369 38.6851 39.0143 37.5979 42.4014C37.5836 42.4455 37.5694 42.4879 37.5552 42.5321C37.4626 42.8027 37.3505 43.0935 37.0036 42.9573C36.6975 42.8358 36.7722 42.5597 36.8363 42.2909C37.2829 40.428 37.8399 38.5835 38.137 36.6948C38.8203 32.3468 38.6424 28.0246 37.3737 23.787C37.2936 23.5183 37.2384 23.2477 37.5534 23.1335C37.8719 23.0176 37.9947 23.2624 38.0801 23.5311C38.7206 25.5597 39.0392 27.6509 39.1833 29.7734C39.2331 30.5042 39.2473 31.2368 39.2794 31.9694V31.9658Z" fill="#FAF0E6"/>
<path d="M46.3238 32.2382C46.0996 34.6055 45.8737 36.9894 45.6459 39.3714C45.6423 39.4174 45.6299 39.4616 45.6228 39.5058C45.5783 39.7653 45.4911 40.0065 45.1779 39.9512C44.8772 39.8979 44.847 39.653 44.879 39.3843C45.0107 38.2927 45.1761 37.2047 45.2633 36.1113C45.5872 32.0412 45.5463 27.9933 44.4342 24.0263C44.3932 23.8791 44.347 23.7336 44.2989 23.5901C44.2082 23.3195 44.1121 23.0231 44.4715 22.9053C44.8221 22.7911 44.9448 23.0783 45.0142 23.3544C45.2651 24.343 45.5907 25.3204 45.7242 26.3274C45.9822 28.2749 46.1281 30.2391 46.3238 32.2364V32.2382Z" fill="#FAF0E6"/>
<path d="M27.4787 35.5959C24.1904 35.548 21.3915 34.6055 18.7562 33.1034C17.7758 32.5438 16.8577 31.8701 15.9182 31.2387C15.7989 31.1595 15.6655 31.0417 15.6263 30.9128C15.5908 30.795 15.6619 30.5226 15.7064 30.5189C15.9021 30.4986 16.1424 30.4858 16.3007 30.5833C17.4164 31.2681 18.4822 32.0468 19.6281 32.6726C21.8167 33.8673 24.1424 34.6276 26.6335 34.7841C27.9733 34.8687 29.2865 34.7141 30.5783 34.3478C30.6637 34.3239 30.7616 34.2594 30.831 34.2834C30.9947 34.3386 31.1441 34.4361 31.2989 34.5153C31.2082 34.681 31.1495 34.9571 31.0231 34.9958C30.3719 35.189 29.71 35.3566 29.0427 35.4652C28.4466 35.5627 27.8381 35.5701 27.4787 35.5995V35.5959Z" fill="#FAF0E6"/>
<path d="M28.2634 31.8019C24.7705 31.7191 21.669 30.738 18.7669 29.0462C18.6157 28.9579 18.4573 28.7388 18.4431 28.5676C18.4182 28.2584 18.7562 28.1663 19.1157 28.3725C20.6459 29.2487 22.2562 29.9225 23.9484 30.3808C26.7758 31.1466 29.5961 31.292 32.4004 30.2612C32.6779 30.1599 32.952 30.0421 33.2189 29.9151C33.4751 29.7936 33.7242 29.7476 33.8505 30.0642C33.9644 30.3514 33.7758 30.5042 33.5338 30.6201C32.2616 31.2258 30.9235 31.5774 29.532 31.7136C29.0623 31.7596 28.5908 31.7799 28.2616 31.8019H28.2634Z" fill="#FAF0E6"/>
<path d="M27.3398 27.8479C24.0818 27.7595 20.9199 26.5372 17.9982 24.5583C17.7687 24.4019 17.5818 24.2123 17.7687 23.9251C17.9591 23.6324 18.1922 23.7594 18.4199 23.9159C20.4555 25.3167 22.6584 26.3181 25.064 26.8004C27.4662 27.2827 29.8203 27.1484 32.0854 26.112C32.3434 25.9942 32.621 25.8874 32.7669 26.2335C32.9146 26.5851 32.637 26.7102 32.3843 26.8262C30.8648 27.5257 29.2669 27.8276 27.3416 27.846L27.3398 27.8479Z" fill="#FAF0E6"/>
</g>
<defs>
<clipPath id="clip0_0_1">
<rect width="54" height="59" fill="white"/>
</clipPath>
</defs>
</svg>
